<svg width="24" height="24" viewBox="0 0 24 24" fill="none" xmlns="http://www.w3.org/2000/svg">
<g filter="url(#filter0_d_102_4)">
<path fill-rule="evenodd" clip-rule="evenodd" d="M16.4557 11.8666C17.3811 11.4833 17.4055 10.1813 16.4951 9.76351L7.20517 5.50037C6.34493 5.10561 5.40358 5.86336 5.60546 6.78807L7.80003 16.8401C8.01532 17.8262 9.30713 18.074 9.87207 17.2376L12.1583 13.8526C12.2843 13.6662 12.4622 13.5209 12.6701 13.4348L16.4557 11.8666Z" fill="black"/>
<path d="M5.0446 6.91029C4.742 5.5235 6.15385 4.38704 7.44401 4.97865L16.734 9.24232C18.0996 9.86897 18.0634 11.8215 16.6755 12.3966L12.8893 13.965C12.7855 14.0081 12.6964 14.0808 12.6335 14.174L10.3473 17.5587C9.49989 18.8132 7.56283 18.4412 7.23991 16.9621L5.0446 6.91029Z" stroke="white" stroke-width="1.14752" stroke-miterlimit="16"/>
</g>
<defs>
<filter id="filter0_d_102_4" x="0.986512" y="1.94839" width="20.7676" height="21.5333" filterUnits="userSpaceOnUse" color-interpolation-filters="sRGB">
<feFlood flood-opacity="0" result="BackgroundImageFix"/>
<feColorMatrix in="SourceAlpha" type="matrix" values="0 0 0 0 0 0 0 0 0 0 0 0 0 0 0 0 0 0 127 0" result="hardAlpha"/>
<feOffset dy="1.14752"/>
<feGaussianBlur stdDeviation="1.72127"/>
<feColorMatrix type="matrix" values="0 0 0 0 0 0 0 0 0 0 0 0 0 0 0 0 0 0 0.25 0"/>
<feBlend mode="normal" in2="BackgroundImageFix" result="effect1_dropShadow_102_4"/>
<feBlend mode="normal" in="SourceGraphic" in2="effect1_dropShadow_102_4" result="shape"/>
</filter>
</defs>
</svg>
