<svg width="24" height="24" viewBox="0 0 24 24" fill="none" xmlns="http://www.w3.org/2000/svg">
<g clip-path="url(#clip0_104_5)">
<g filter="url(#filter0_d_104_5)">
<mask id="path-1-outside-1_104_5" maskUnits="userSpaceOnUse" x="6.18215" y="2.84229" width="12" height="19" fill="black">
<rect fill="white" x="6.18215" y="2.84229" width="12" height="19"/>
<path d="M13.3585 11.9905H12.4481V7.32736C12.637 6.87491 12.931 6.47375 13.306 6.15735C13.5393 5.98664 13.8221 5.83567 14.1222 5.72794C14.4201 5.67362 14.7907 5.64876 15.1597 5.67193L15.2166 4.76331C14.7689 4.7352 14.3194 4.7654 13.8795 4.8531C13.4315 5.00864 13.0701 5.20102 12.7424 5.44255C12.4511 5.68757 12.2016 5.96344 11.9956 6.26404C11.8012 5.96852 11.5704 5.6967 11.3083 5.45589C10.9461 5.17803 10.5749 4.98709 10.1792 4.86466C9.81293 4.78952 9.46624 4.75358 9.12567 4.75264L8.78605 4.76331L8.84472 5.67193C9.21647 5.64796 9.58988 5.67261 9.95516 5.74572C10.204 5.82521 10.4801 5.96753 10.7251 6.1538C11.0653 6.46916 11.3567 6.88983 11.5466 7.35848V11.9905H10.6362V12.8831H11.5466V16.6421C11.3564 17.1106 11.0644 17.531 10.6922 17.8734C10.48 18.0327 10.2045 18.1749 9.91071 18.2655C9.67022 18.312 9.39977 18.3378 9.123 18.3375C9.03028 18.3376 8.93739 18.3337 8.84472 18.3277L8.78605 19.2363C9.23734 19.2657 9.69046 19.2355 10.1339 19.1465C10.5746 19.0131 10.9465 18.8226 11.2763 18.5713C11.559 18.3127 11.799 18.0307 11.9982 17.7285C12.2035 18.0268 12.4499 18.2975 12.7299 18.5313C13.0786 18.7902 13.4404 18.9828 13.8244 19.1199C14.3213 19.2276 14.7678 19.2617 15.2131 19.2372L15.1633 18.3277C14.7968 18.3478 14.4291 18.3206 14.0697 18.2459C13.8303 18.1559 13.5477 18.005 13.2918 17.8156C12.9348 17.5165 12.6392 17.116 12.4481 16.6634V12.8831H13.3585V11.9905ZM13.3585 16.4616C13.4877 16.7123 13.6619 16.9309 13.8581 17.0999C14.0185 17.2156 14.1891 17.3079 14.3302 17.3675C14.5884 17.415 14.8512 17.4335 15.1135 17.4191L16.0221 17.3693L16.1217 19.1874L16.1724 20.0961L15.2629 20.1458C14.7332 20.1749 14.2051 20.1341 13.6314 20.0098L13.5736 19.9974L13.5185 19.9778C13.0475 19.8097 12.6058 19.5734 12.1867 19.2621L12.1458 19.2301C12.1024 19.1939 12.0625 19.1539 12.0205 19.1163C11.9774 19.1583 11.9354 19.2017 11.8906 19.2426L11.8604 19.2701L11.8275 19.295C11.4079 19.6147 10.9382 19.8542 10.3979 20.0178L10.3561 20.0312L10.3135 20.0392C9.79161 20.1439 9.2576 20.1795 8.72648 20.145L7.81786 20.0863L7.99567 17.3604L8.90429 17.42C9.17979 17.4379 9.45372 17.4198 9.68489 17.38C9.85167 17.3238 10.0031 17.2453 10.1161 17.1657C10.3309 16.9591 10.5067 16.716 10.6362 16.4482V13.7935H9.72578V11.0801H10.6362V7.5514C10.5056 7.28021 10.3318 7.03974 10.141 6.85438C10.0013 6.75317 9.85231 6.67673 9.72578 6.63034C9.45466 6.58037 9.17865 6.56281 8.9034 6.58055L7.99478 6.63923L7.81875 3.91336L8.72737 3.85469C9.26202 3.8202 9.79625 3.85701 10.3615 3.97293L10.405 3.98182L10.4477 3.99516C10.9503 4.15062 11.4177 4.39217 11.8622 4.73308L11.8942 4.75797L11.9244 4.78553C11.9555 4.81406 11.9848 4.84432 12.0151 4.87355C12.0619 4.83115 12.1078 4.78733 12.1565 4.74641L12.1787 4.72774L12.2018 4.70996C12.5559 4.44895 12.9396 4.23684 13.3852 4.0645L13.6394 3.97204L13.7008 3.96048C14.2181 3.85733 14.747 3.82165 15.2735 3.85469L16.1821 3.91159L16.0114 6.63745L15.1028 6.58055C14.8389 6.56398 14.5754 6.57961 14.3631 6.61166C14.1783 6.68431 14.0069 6.77654 13.867 6.87572C13.6569 7.05873 13.4847 7.28008 13.3585 7.5274V11.0801H14.2689V13.7935H13.3585V16.4616Z"/>
</mask>
<path d="M13.3585 11.9905H12.4481V7.32736C12.637 6.87491 12.931 6.47375 13.306 6.15735C13.5393 5.98664 13.8221 5.83567 14.1222 5.72794C14.4201 5.67362 14.7907 5.64876 15.1597 5.67193L15.2166 4.76331C14.7689 4.7352 14.3194 4.7654 13.8795 4.8531C13.4315 5.00864 13.0701 5.20102 12.7424 5.44255C12.4511 5.68757 12.2016 5.96344 11.9956 6.26404C11.8012 5.96852 11.5704 5.6967 11.3083 5.45589C10.9461 5.17803 10.5749 4.98709 10.1792 4.86466C9.81293 4.78952 9.46624 4.75358 9.12567 4.75264L8.78605 4.76331L8.84472 5.67193C9.21647 5.64796 9.58988 5.67261 9.95516 5.74572C10.204 5.82521 10.4801 5.96753 10.7251 6.1538C11.0653 6.46916 11.3567 6.88983 11.5466 7.35848V11.9905H10.6362V12.8831H11.5466V16.6421C11.3564 17.1106 11.0644 17.531 10.6922 17.8734C10.48 18.0327 10.2045 18.1749 9.91071 18.2655C9.67022 18.312 9.39977 18.3378 9.123 18.3375C9.03028 18.3376 8.93739 18.3337 8.84472 18.3277L8.78605 19.2363C9.23734 19.2657 9.69046 19.2355 10.1339 19.1465C10.5746 19.0131 10.9465 18.8226 11.2763 18.5713C11.559 18.3127 11.799 18.0307 11.9982 17.7285C12.2035 18.0268 12.4499 18.2975 12.7299 18.5313C13.0786 18.7902 13.4404 18.9828 13.8244 19.1199C14.3213 19.2276 14.7678 19.2617 15.2131 19.2372L15.1633 18.3277C14.7968 18.3478 14.4291 18.3206 14.0697 18.2459C13.8303 18.1559 13.5477 18.005 13.2918 17.8156C12.9348 17.5165 12.6392 17.116 12.4481 16.6634V12.8831H13.3585V11.9905ZM13.3585 16.4616C13.4877 16.7123 13.6619 16.9309 13.8581 17.0999C14.0185 17.2156 14.1891 17.3079 14.3302 17.3675C14.5884 17.415 14.8512 17.4335 15.1135 17.4191L16.0221 17.3693L16.1217 19.1874L16.1724 20.0961L15.2629 20.1458C14.7332 20.1749 14.2051 20.1341 13.6314 20.0098L13.5736 19.9974L13.5185 19.9778C13.0475 19.8097 12.6058 19.5734 12.1867 19.2621L12.1458 19.2301C12.1024 19.1939 12.0625 19.1539 12.0205 19.1163C11.9774 19.1583 11.9354 19.2017 11.8906 19.2426L11.8604 19.2701L11.8275 19.295C11.4079 19.6147 10.9382 19.8542 10.3979 20.0178L10.3561 20.0312L10.3135 20.0392C9.79161 20.1439 9.2576 20.1795 8.72648 20.145L7.81786 20.0863L7.99567 17.3604L8.90429 17.42C9.17979 17.4379 9.45372 17.4198 9.68489 17.38C9.85167 17.3238 10.0031 17.2453 10.1161 17.1657C10.3309 16.9591 10.5067 16.716 10.6362 16.4482V13.7935H9.72578V11.0801H10.6362V7.5514C10.5056 7.28021 10.3318 7.03974 10.141 6.85438C10.0013 6.75317 9.85231 6.67673 9.72578 6.63034C9.45466 6.58037 9.17865 6.56281 8.9034 6.58055L7.99478 6.63923L7.81875 3.91336L8.72737 3.85469C9.26202 3.8202 9.79625 3.85701 10.3615 3.97293L10.405 3.98182L10.4477 3.99516C10.9503 4.15062 11.4177 4.39217 11.8622 4.73308L11.8942 4.75797L11.9244 4.78553C11.9555 4.81406 11.9848 4.84432 12.0151 4.87355C12.0619 4.83115 12.1078 4.78733 12.1565 4.74641L12.1787 4.72774L12.2018 4.70996C12.5559 4.44895 12.9396 4.23684 13.3852 4.0645L13.6394 3.97204L13.7008 3.96048C14.2181 3.85733 14.747 3.82165 15.2735 3.85469L16.1821 3.91159L16.0114 6.63745L15.1028 6.58055C14.8389 6.56398 14.5754 6.57961 14.3631 6.61166C14.1783 6.68431 14.0069 6.77654 13.867 6.87572C13.6569 7.05873 13.4847 7.28008 13.3585 7.5274V11.0801H14.2689V13.7935H13.3585V16.4616Z" fill="white"/>
<path d="M13.3585 11.9905H12.4481V7.32736C12.637 6.87491 12.931 6.47375 13.306 6.15735C13.5393 5.98664 13.8221 5.83567 14.1222 5.72794C14.4201 5.67362 14.7907 5.64876 15.1597 5.67193L15.2166 4.76331C14.7689 4.7352 14.3194 4.7654 13.8795 4.8531C13.4315 5.00864 13.0701 5.20102 12.7424 5.44255C12.4511 5.68757 12.2016 5.96344 11.9956 6.26404C11.8012 5.96852 11.5704 5.6967 11.3083 5.45589C10.9461 5.17803 10.5749 4.98709 10.1792 4.86466C9.81293 4.78952 9.46624 4.75358 9.12567 4.75264L8.78605 4.76331L8.84472 5.67193C9.21647 5.64796 9.58988 5.67261 9.95516 5.74572C10.204 5.82521 10.4801 5.96753 10.7251 6.1538C11.0653 6.46916 11.3567 6.88983 11.5466 7.35848V11.9905H10.6362V12.8831H11.5466V16.6421C11.3564 17.1106 11.0644 17.531 10.6922 17.8734C10.48 18.0327 10.2045 18.1749 9.91071 18.2655C9.67022 18.312 9.39977 18.3378 9.123 18.3375C9.03028 18.3376 8.93739 18.3337 8.84472 18.3277L8.78605 19.2363C9.23734 19.2657 9.69046 19.2355 10.1339 19.1465C10.5746 19.0131 10.9465 18.8226 11.2763 18.5713C11.559 18.3127 11.799 18.0307 11.9982 17.7285C12.2035 18.0268 12.4499 18.2975 12.7299 18.5313C13.0786 18.7902 13.4404 18.9828 13.8244 19.1199C14.3213 19.2276 14.7678 19.2617 15.2131 19.2372L15.1633 18.3277C14.7968 18.3478 14.4291 18.3206 14.0697 18.2459C13.8303 18.1559 13.5477 18.005 13.2918 17.8156C12.9348 17.5165 12.6392 17.116 12.4481 16.6634V12.8831H13.3585V11.9905ZM13.3585 16.4616C13.4877 16.7123 13.6619 16.9309 13.8581 17.0999C14.0185 17.2156 14.1891 17.3079 14.3302 17.3675C14.5884 17.415 14.8512 17.4335 15.1135 17.4191L16.0221 17.3693L16.1217 19.1874L16.1724 20.0961L15.2629 20.1458C14.7332 20.1749 14.2051 20.1341 13.6314 20.0098L13.5736 19.9974L13.5185 19.9778C13.0475 19.8097 12.6058 19.5734 12.1867 19.2621L12.1458 19.2301C12.1024 19.1939 12.0625 19.1539 12.0205 19.1163C11.9774 19.1583 11.9354 19.2017 11.8906 19.2426L11.8604 19.2701L11.8275 19.295C11.4079 19.6147 10.9382 19.8542 10.3979 20.0178L10.3561 20.0312L10.3135 20.0392C9.79161 20.1439 9.2576 20.1795 8.72648 20.145L7.81786 20.0863L7.99567 17.3604L8.90429 17.42C9.17979 17.4379 9.45372 17.4198 9.68489 17.38C9.85167 17.3238 10.0031 17.2453 10.1161 17.1657C10.3309 16.9591 10.5067 16.716 10.6362 16.4482V13.7935H9.72578V11.0801H10.6362V7.5514C10.5056 7.28021 10.3318 7.03974 10.141 6.85438C10.0013 6.75317 9.85231 6.67673 9.72578 6.63034C9.45466 6.58037 9.17865 6.56281 8.9034 6.58055L7.99478 6.63923L7.81875 3.91336L8.72737 3.85469C9.26202 3.8202 9.79625 3.85701 10.3615 3.97293L10.405 3.98182L10.4477 3.99516C10.9503 4.15062 11.4177 4.39217 11.8622 4.73308L11.8942 4.75797L11.9244 4.78553C11.9555 4.81406 11.9848 4.84432 12.0151 4.87355C12.0619 4.83115 12.1078 4.78733 12.1565 4.74641L12.1787 4.72774L12.2018 4.70996C12.5559 4.44895 12.9396 4.23684 13.3852 4.0645L13.6394 3.97204L13.7008 3.96048C14.2181 3.85733 14.747 3.82165 15.2735 3.85469L16.1821 3.91159L16.0114 6.63745L15.1028 6.58055C14.8389 6.56398 14.5754 6.57961 14.3631 6.61166C14.1783 6.68431 14.0069 6.77654 13.867 6.87572C13.6569 7.05873 13.4847 7.28008 13.3585 7.5274V11.0801H14.2689V13.7935H13.3585V16.4616Z" stroke="white" stroke-width="2" mask="url(#path-1-outside-1_104_5)"/>
<path d="M15.3983 4.77412L15.3416 5.6833L15.3299 5.86494L15.1483 5.85323C14.7998 5.83135 14.4503 5.85426 14.1698 5.90401C13.8941 6.00443 13.6353 6.14345 13.4217 6.29854C13.0782 6.58882 12.8075 6.95448 12.6297 7.3669V11.8083H13.5399V13.0651H12.6297V16.6228C12.8095 17.0355 13.0812 17.3995 13.4061 17.6726C13.6431 17.8472 13.903 17.9862 14.1219 18.07C14.461 18.1392 14.8075 18.1652 15.1531 18.1462L15.3348 18.1364L15.3446 18.3181L15.3953 19.2272L15.4051 19.4089L15.2235 19.4187C14.7614 19.444 14.2982 19.4086 13.786 19.2976L13.7742 19.2956L13.7635 19.2917C13.3621 19.1484 12.9838 18.9469 12.6209 18.6774L12.6131 18.6706C12.3868 18.4817 12.1832 18.2691 12.0028 18.0388C11.8271 18.2747 11.6262 18.4972 11.3992 18.7048L11.3934 18.7106L11.3865 18.7155C11.0822 18.9474 10.7446 19.1308 10.3563 19.2663L10.1864 19.321L10.1785 19.3239L10.1698 19.3249C9.71069 19.417 9.24147 19.449 8.77424 19.4187L8.5926 19.4069L8.60432 19.2253L8.66291 18.3161L8.67463 18.1345L8.85627 18.1462C9.20922 18.1691 9.56328 18.1452 9.86604 18.0876C10.1351 18.0035 10.3861 17.8742 10.578 17.7312C10.9179 17.416 11.1854 17.0316 11.3641 16.6042V13.0651H10.4539V11.8083H11.3641V7.39522C11.1852 6.96665 10.9184 6.58243 10.6092 6.29366C10.3838 6.12327 10.1315 5.99431 9.90705 5.92159C9.56128 5.85348 9.208 5.83054 8.85627 5.85323L8.67463 5.86494L8.5926 4.59346L8.77424 4.58174C9.24217 4.55156 9.71176 4.58287 10.2156 4.68623L10.2244 4.68819L10.2323 4.69014C10.6494 4.81915 11.0401 5.02078 11.4188 5.31123L11.4256 5.31612L11.4315 5.32198C11.6408 5.51434 11.8313 5.72506 11.9998 5.95186C12.1822 5.7184 12.3901 5.50084 12.6248 5.30342L12.6336 5.29561L12.6346 5.29659C12.9776 5.04373 13.3549 4.84261 13.8192 4.68135L13.8309 4.67647L13.8436 4.67451C14.2991 4.58369 14.7648 4.55264 15.2283 4.58174L15.41 4.59248L15.3983 4.77412Z" fill="black" stroke="black" stroke-width="0.36416"/>
</g>
</g>
<defs>
<filter id="filter0_d_104_5" x="4.05484" y="1.14229" width="15.8878" height="23.7154" filterUnits="userSpaceOnUse" color-interpolation-filters="sRGB">
<feFlood flood-opacity="0" result="BackgroundImageFix"/>
<feColorMatrix in="SourceAlpha" type="matrix" values="0 0 0 0 0 0 0 0 0 0 0 0 0 0 0 0 0 0 127 0" result="hardAlpha"/>
<feOffset dy="1"/>
<feGaussianBlur stdDeviation="1.35"/>
<feColorMatrix type="matrix" values="0 0 0 0 0 0 0 0 0 0 0 0 0 0 0 0 0 0 0.5 0"/>
<feBlend mode="normal" in2="BackgroundImageFix" result="effect1_dropShadow_104_5"/>
<feBlend mode="normal" in="SourceGraphic" in2="effect1_dropShadow_104_5" result="shape"/>
</filter>
<clipPath id="clip0_104_5">
<rect width="24" height="24" fill="white"/>
</clipPath>
</defs>
</svg>
